<?xml version="1.0" encoding="UTF-8" standalone="no"?>
<svg
   fill="#3e3e3e"
   stroke="#3e3e3e"
   viewBox="0 0 48 8"
   width="768"
   height="128"
   version="1.1"
   id="counters-logo"
   sodipodi:docname="hinolugi-logo.svg"
   inkscape:version="1.2 (dc2aedaf03, 2022-05-15)"
   inkscape:export-filename="hinolugi-logo.png"
   inkscape:export-xdpi="96"
   inkscape:export-ydpi="96"
   xmlns:inkscape="http://www.inkscape.org/namespaces/inkscape"
   xmlns:sodipodi="http://sodipodi.sourceforge.net/DTD/sodipodi-0.dtd"
   xmlns="http://www.w3.org/2000/svg"
   xmlns:svg="http://www.w3.org/2000/svg">
  <defs
     id="defs20">
    <rect
       x="138.004"
       y="24.112224"
       width="119.53507"
       height="88.753505"
       id="rect620" />
  </defs>
  <sodipodi:namedview
     id="namedview18"
     pagecolor="#ffffff"
     bordercolor="#666666"
     borderopacity="1.0"
     inkscape:showpageshadow="2"
     inkscape:pageopacity="0.0"
     inkscape:pagecheckerboard="0"
     inkscape:deskcolor="#d1d1d1"
     showgrid="false"
     inkscape:zoom="5.5132233"
     inkscape:cx="364.12456"
     inkscape:cy="71.192473"
     inkscape:window-width="1920"
     inkscape:window-height="1013"
     inkscape:window-x="-9"
     inkscape:window-y="-9"
     inkscape:window-maximized="1"
     inkscape:current-layer="g431" />
  <g
     class="layer"
     id="hexagon"
     transform="matrix(-0.18162159,-0.00162356,0.00214238,-0.16522024,24.478235,7.172959)"
     style="stroke-width:2.19064;stroke-dasharray:none"
     inkscape:label="hexagon">
    <path
       stroke-width="0.2"
       d="m 15.798,2.7 c -1.773,0 -10.4628,4.9839 -11.3399,6.5039 -0.878,1.521 -0.878,11.4791 0,12.9941 0.881,1.519 9.5709,6.5019 11.3399,6.5019 1.764,0 10.4539,-4.9801 11.3379,-6.4981 0.887,-1.522 0.887,-11.4879 0,-13.0039 V 9.1959 C 26.2449,7.6789 17.556,2.6998 15.798,2.6998 Z m -0.002,2.0117 c 1.697,0.353 8.4216,4.205 9.5996,5.4981 0.54,1.641 0.539,9.3345 0,10.9785 -1.17,1.291 -7.9006,5.148 -9.5996,5.5 -1.698,-0.35 -8.4237,-4.205 -9.5957,-5.4981 -0.535,-1.648 -0.535,-9.3345 0,-10.9805 1.169,-1.293 7.8967,-5.148 9.5957,-5.4981 z m 0,0 z"
       id="svg_1"
       style="stroke-width:2.19064;stroke-dasharray:none" />
  </g>
  <g
     inkscape:groupmode="layer"
     id="text-parts"
     inkscape:label="text"
     transform="translate(5.5942157,-14.422691)">
    <text
       xml:space="preserve"
       style="font-style:normal;font-variant:normal;font-weight:normal;font-stretch:normal;font-size:9.18879px;line-height:1.25;font-family:Roboto;-inkscape-font-specification:Roboto;letter-spacing:0px;word-spacing:0px;fill-opacity:1;stroke:none;stroke-width:0.22972"
       x="-3.4963975"
       y="24.63158"
       id="text-start-part"
       transform="scale(1.1632679,0.85964721)"
       inkscape:label="c"><tspan
         id="tspan185-1"
         style="font-style:normal;font-variant:normal;font-weight:normal;font-stretch:normal;font-family:Roboto;-inkscape-font-specification:Roboto;stroke-width:0.22972"
         x="-3.4963975"
         y="24.63158"
         sodipodi:role="line">HiN</tspan></text>
    <text
       xml:space="preserve"
       style="font-style:normal;font-variant:normal;font-weight:normal;font-stretch:normal;font-size:9.18879px;line-height:1.25;font-family:Roboto;-inkscape-font-specification:Roboto;letter-spacing:0px;word-spacing:0px;fill-opacity:1;stroke:none;stroke-width:0.22972"
       x="15.99144"
       y="24.705315"
       id="text-end-part"
       transform="scale(1.1632679,0.85964721)"
       inkscape:label="unters"><tspan
         id="tspan185"
         style="font-style:normal;font-variant:normal;font-weight:normal;font-stretch:normal;font-family:Roboto;-inkscape-font-specification:Roboto;stroke-width:0.22972"
         x="15.99144"
         y="24.705315"
         sodipodi:role="line">LuGi</tspan></text>
    <text
       xml:space="preserve"
       transform="matrix(0.0625,0,0,0.0625,-5.5942157,14.422691)"
       id="text618"
       style="font-style:normal;font-weight:normal;font-size:40px;line-height:1.25;font-family:sans-serif;letter-spacing:0px;word-spacing:0px;white-space:pre;shape-inside:url(#rect620);display:inline;fill:#000000;fill-opacity:1;stroke:none" />
  </g>
  <g
     class="layer"
     id="g431"
     transform="matrix(0.13186031,0.08991932,-0.09868668,0.14471701,21.157383,0.96154447)">
    <title
       id="title425">Strokes</title>
    <text
       fill="#3e3e3e"
       font-family="Sans-serif"
       font-size="24px"
       font-weight="bolder"
       id="svg_2-3"
       stroke="#3e3e3e"
       stroke-width="0"
       text-anchor="middle"
       transform="matrix(0.372122,-5.60621e-5,4.73991e-5,0.31462,1.79687,-1.27565)"
       x="26.879999"
       xml:space="preserve"
       y="51.200001">H</text>
    <text
       fill="#3e3e3e"
       font-family="Sans-serif"
       font-size="8.21197px"
       font-weight="bolder"
       id="svg_3-9"
       stroke="#3e3e3e"
       stroke-width="0"
       text-anchor="middle"
       transform="matrix(1.0875505,6.4095052e-4,-5.4190773e-4,0.91949721,0,0)"
       x="17.140528"
       xml:space="preserve"
       y="16.256691">N</text>
    <text
       fill="#3e3e3e"
       font-family="Sans-serif"
       font-size="8.21196px"
       font-weight="bolder"
       id="svg_4-5"
       stroke="#3e3e3e"
       stroke-width="0"
       text-anchor="middle"
       transform="scale(1.0875507,0.91949737)"
       x="10.129617"
       xml:space="preserve"
       y="23.494257">L</text>
    <text
       fill="#3e3e3e"
       font-family="Sans-serif"
       font-size="7.93667px"
       font-weight="bolder"
       id="svg_5-0"
       stroke="#3e3e3e"
       stroke-width="0"
       text-anchor="middle"
       transform="matrix(1.1381403,-0.06487689,-0.03394121,0.88056104,0,0)"
       x="17.026575"
       xml:space="preserve"
       y="25.766943">G</text>
  </g>
</svg>
