<svg fill="#000000" xmlns="http://www.w3.org/2000/svg" viewBox="0 0 32 32" width="512px" height="512px">
 <g class="layer">
  <title>Hexagon</title>
  <path d="m15.8,2.7c-1.77,0 -10.46,4.98 -11.34,6.5c-0.88,1.52 -0.88,11.48 0,13c0.88,1.52 9.57,6.5 11.34,6.5c1.76,0 10.45,-4.98 11.34,-6.5c0.88,-1.52 0.88,-11.49 0,-13l0,0c-0.9,-1.52 -9.58,-6.5 -11.34,-6.5l0,0zm0,2.01c1.69,0.35 8.42,4.21 9.6,5.5c0.54,1.64 0.53,9.33 0,10.98c-1.17,1.29 -7.9,5.15 -9.6,5.5c-1.7,-0.35 -8.43,-4.21 -9.6,-5.5c-0.53,-1.65 -0.53,-9.33 0,-10.98c1.17,-1.29 7.9,-5.15 9.6,-5.5l0,0zl0,0z" id="svg_1"/>
 </g>
 <g class="layer">
  <title>Strokes</title>
  <text fill="#000000" font-family="Sans-serif" font-size="24" font-weight="bolder" id="svg_2" stroke="#000000" stroke-width="0" text-anchor="middle" transform="matrix(1 0 0 1 0 0) matrix(0.372122 -0.0000560621 0.0000473991 0.31462 1.79687 -1.27565)" x="26.88" xml:space="preserve" y="51.2">H</text>
  <text fill="#000000" font-family="Sans-serif" font-size="24" font-weight="bolder" id="svg_3" stroke="#000000" stroke-width="0" text-anchor="middle" transform="matrix(0.372122 0.000219311 -0.000185422 0.31462 1.607 -1.58759)" x="47.57" xml:space="preserve" y="51.74">N</text>
  <text fill="#000000" font-family="Sans-serif" font-size="24" font-weight="bolder" id="svg_4" stroke="#000000" stroke-width="0" text-anchor="middle" transform="matrix(0.372122 0 0 0.31462 1.79895 -1.27716)" x="25.48" xml:space="preserve" y="74.94">L</text>
  <text fill="#000000" font-family="Sans-serif" font-size="24" font-weight="bolder" id="svg_5" stroke="#000000" stroke-width="0" text-anchor="middle" transform="matrix(1 0 0 1 0 0) rotate(-47.2426 19.3823 19.5703) matrix(0.372122 0 0 0.31462 1.79895 -1.27716)" x="47.25" xml:space="preserve" y="74.62">G</text>
 </g>
</svg>